<svg xmlns="http://www.w3.org/2000/svg" xmlns:xlink="http://www.w3.org/1999/xlink" width="1920" zoomAndPan="magnify" viewBox="0 0 1440 809.999993" height="1080" preserveAspectRatio="xMidYMid meet" version="1.0"><defs><clipPath id="8a8819361e"><path d="M 552.558594 245 L 886 245 L 886 565 L 552.558594 565 Z M 552.558594 245 " clip-rule="nonzero"/></clipPath></defs><g clip-path="url(#8a8819361e)"><path fill="#ffffff" d="M 552.695312 468.898438 C 552.609375 460.992188 555.136719 453.503906 556.984375 445.929688 C 561.699219 426.832031 566.324219 407.734375 571.203125 388.71875 C 575.328125 372.902344 585.171875 362.050781 600.820312 357.253906 C 625.304688 349.765625 649.953125 343.035156 674.605469 336.050781 C 677.886719 335.125 681.421875 334.957031 684.871094 334.707031 C 686.550781 334.539062 687.226562 334.371094 686.972656 332.433594 C 685.039062 318.214844 689.75 306.4375 700.433594 296.761719 C 715.410156 283.300781 730.050781 269.585938 744.941406 255.957031 C 755.792969 246.113281 768.332031 243 782.464844 246.953125 C 802.574219 252.589844 822.679688 258.398438 842.703125 264.285156 C 856.921875 268.492188 866.347656 277.832031 869.964844 292.21875 C 875.011719 312.328125 879.722656 332.519531 884.183594 352.792969 C 887.378906 367.351562 882.921875 380.054688 871.984375 390.148438 C 856.839844 404.117188 841.527344 417.832031 826.300781 431.628906 C 815.023438 441.808594 801.984375 444.835938 787.34375 440.628906 C 784.0625 439.707031 783.894531 439.875 783.054688 443.324219 C 777.753906 465.535156 772.707031 487.828125 767.070312 509.957031 C 762.863281 526.53125 752.261719 537.722656 735.855469 542.601562 C 711.792969 549.753906 687.644531 556.398438 663.414062 562.792969 C 647.683594 567 633.210938 563.464844 621.097656 552.445312 C 602.671875 535.617188 584.414062 518.453125 566.324219 501.292969 C 557.152344 492.542969 552.78125 481.519531 552.695312 468.898438 Z M 780.023438 429.441406 C 779.773438 429.355469 779.519531 429.355469 779.269531 429.273438 C 779.269531 428.347656 779.351562 427.335938 779.269531 426.328125 C 778.847656 418.585938 775.902344 416.398438 768.332031 418.585938 C 757.8125 421.53125 747.382812 424.476562 736.863281 427.335938 C 718.777344 432.386719 700.6875 437.519531 682.683594 442.566406 C 674.773438 444.753906 670.0625 449.464844 668.128906 457.710938 C 661.394531 487.324219 654.414062 516.941406 647.515625 546.472656 C 645.832031 553.707031 648.859375 557.492188 656.433594 556.988281 C 660.808594 556.652344 665.265625 555.894531 669.472656 554.714844 C 690.253906 548.910156 711.035156 542.851562 731.816406 537.046875 C 747.886719 532.503906 757.8125 522.242188 761.769531 506.085938 C 766.480469 486.820312 771.273438 467.554688 775.988281 448.285156 C 777.5 441.976562 778.761719 435.667969 780.023438 429.441406 Z M 665.433594 453.167969 C 665.351562 445.59375 662.574219 440.96875 658.453125 437.011719 C 636.660156 416.230469 615.039062 395.535156 593.246094 374.753906 C 588.453125 370.210938 584.246094 370.632812 580.292969 376.015625 C 577.011719 380.558594 575.074219 385.605469 573.8125 390.992188 C 568.597656 413.035156 563.464844 435.160156 558.164062 457.207031 C 554.460938 472.855469 558.5 486.230469 570.027344 497.167969 C 586.683594 512.984375 603.597656 528.464844 620.421875 544.117188 C 623.117188 546.640625 625.890625 549.164062 628.921875 551.265625 C 633.210938 554.210938 638.511719 552.78125 640.785156 548.152344 C 641.792969 546.132812 642.464844 543.863281 642.972656 541.589844 C 649.195312 517.359375 655.339844 493.214844 661.480469 469.066406 C 663.164062 463.261719 664.507812 457.375 665.433594 453.167969 Z M 676.371094 439.957031 C 678.558594 439.535156 680.746094 439.285156 682.851562 438.695312 C 706.996094 431.710938 731.058594 424.5625 755.289062 417.492188 C 760 416.148438 764.628906 414.886719 769.257812 413.371094 C 773.210938 412.109375 774.136719 409.25 771.613281 405.96875 C 769.929688 403.78125 768.164062 401.675781 766.144531 399.824219 C 748.644531 383.25 731.144531 366.675781 713.558594 350.1875 C 702.117188 339.417969 688.65625 336.050781 673.511719 340.257812 C 650.289062 346.652344 627.152344 353.132812 603.933594 359.609375 C 601.324219 360.367188 598.632812 361.292969 596.191406 362.46875 C 592.070312 364.488281 591.480469 368.191406 594.507812 371.640625 C 595.015625 372.144531 595.519531 372.652344 596.023438 373.15625 C 601.914062 378.707031 607.804688 384.261719 613.691406 389.730469 C 629.257812 404.199219 644.90625 418.585938 660.472656 433.058594 C 665.015625 437.179688 669.976562 439.957031 676.371094 439.957031 Z M 879.554688 359.777344 C 879.472656 358.601562 879.386719 356.496094 878.964844 354.5625 C 875.011719 336.472656 870.804688 318.46875 866.851562 300.378906 C 865.503906 294.152344 864.160156 287.925781 860.542969 282.457031 C 857.765625 278.335938 854.652344 277.664062 851.035156 280.945312 C 831.9375 298.191406 812.835938 315.609375 793.738281 332.9375 C 788.1875 337.902344 786.417969 343.707031 788.4375 351.113281 C 791.550781 362.46875 794.074219 373.996094 796.851562 385.4375 C 800.050781 398.898438 803.246094 412.277344 806.441406 425.738281 C 808.042969 432.46875 811.574219 434.066406 817.464844 430.617188 C 820.578125 428.851562 823.523438 426.664062 826.214844 424.140625 C 840.433594 411.183594 854.652344 398.3125 868.785156 385.1875 C 875.855469 378.625 879.386719 370.378906 879.554688 359.777344 Z M 771.273438 248.382812 C 762.273438 249.058594 754.449219 252.085938 747.464844 258.398438 C 732.152344 272.195312 716.839844 285.992188 701.527344 299.957031 C 699.929688 301.390625 698.414062 302.902344 697.152344 304.503906 C 694.207031 308.121094 695.132812 311.570312 699.59375 312.832031 C 724.496094 320.152344 749.402344 327.386719 774.304688 334.621094 C 781.117188 336.558594 787.09375 334.875 792.226562 330.078125 C 807.789062 315.691406 823.269531 301.222656 838.75 286.832031 C 841.78125 283.972656 844.890625 281.195312 847.921875 278.335938 C 851.453125 274.972656 851.035156 272.613281 846.574219 270.511719 C 844.640625 269.585938 842.621094 268.914062 840.601562 268.238281 C 822.429688 262.6875 804.171875 257.132812 785.914062 251.835938 C 781.117188 250.402344 776.15625 249.5625 771.273438 248.382812 Z M 784.820312 428.597656 C 785.074219 435.160156 785.074219 435.160156 791.71875 436.59375 C 792.5625 436.761719 793.488281 436.929688 794.328125 436.929688 C 798.871094 437.179688 802.238281 433.984375 801.984375 429.441406 C 801.898438 427.925781 801.648438 426.496094 801.3125 424.980469 C 798.789062 413.035156 796.179688 401.085938 793.570312 389.140625 C 790.792969 376.519531 788.019531 363.902344 785.242188 351.28125 C 783.726562 344.550781 779.6875 340.175781 773.125 338.15625 C 771.191406 337.566406 769.257812 336.976562 767.238281 336.390625 C 744.605469 329.40625 722.058594 322.421875 699.425781 315.523438 C 693.535156 313.757812 690.421875 315.523438 689.75 321.582031 C 689.328125 325.28125 689.832031 329.152344 690 332.9375 C 690.085938 334.453125 691.011719 334.957031 692.441406 335.210938 C 701.359375 336.558594 709.183594 340.34375 715.832031 346.402344 C 734.003906 363.058594 752.09375 379.71875 770.179688 396.542969 C 779.4375 405.210938 784.316406 415.980469 784.820312 428.597656 Z M 692.359375 520.558594 C 698.246094 518.453125 703.296875 511.472656 703.464844 505.246094 C 703.632812 499.691406 699.507812 496.496094 694.125 498.09375 C 687.984375 499.859375 682.515625 507.433594 682.515625 513.828125 C 682.597656 519.546875 686.972656 522.492188 692.359375 520.558594 Z M 738.378906 471.421875 C 744.855469 469.742188 750.746094 461.496094 750.242188 454.847656 C 749.90625 450.136719 746.457031 447.53125 741.746094 448.539062 C 735.433594 449.886719 729.460938 457.457031 729.375 464.1875 C 729.292969 469.742188 733.078125 472.769531 738.378906 471.421875 Z M 601.324219 407.144531 C 597.789062 404.03125 593.417969 404.789062 590.890625 408.828125 C 587.273438 414.632812 588.957031 424.980469 594.171875 429.441406 C 597.707031 432.46875 602.335938 431.878906 604.523438 427.757812 C 605.785156 425.402344 606.203125 422.625 607.046875 420.019531 C 606.289062 414.886719 605.109375 410.425781 601.324219 407.144531 Z M 618.992188 516.519531 C 622.441406 519.800781 626.902344 519.378906 629.507812 515.59375 C 633.464844 509.871094 631.78125 498.765625 626.226562 494.390625 C 622.609375 491.53125 618.234375 492.289062 616.046875 496.328125 C 614.785156 498.597656 614.367188 501.292969 613.945312 502.554688 C 614.28125 508.695312 615.460938 513.152344 618.992188 516.519531 Z M 606.371094 472.6875 C 609.992188 476.050781 614.617188 475.378906 617.140625 471.085938 C 620.507812 465.367188 618.992188 455.355469 614.027344 450.894531 C 610.160156 447.53125 605.53125 448.203125 603.175781 452.746094 C 602.082031 455.019531 601.660156 457.625 600.988281 460.066406 C 601.578125 464.945312 602.753906 469.320312 606.371094 472.6875 Z M 692.527344 398.480469 C 694.964844 397.804688 697.238281 396.710938 697.910156 393.9375 C 698.582031 391.242188 697.40625 389.054688 695.46875 387.375 C 690.171875 382.746094 684.027344 381.230469 677.214844 382.578125 C 674.605469 383.082031 672.332031 384.34375 671.660156 387.207031 C 670.988281 390.066406 672.417969 392.167969 674.4375 393.9375 C 678.390625 397.46875 683.1875 398.730469 688.824219 399.070312 C 689.75 398.898438 691.179688 398.816406 692.527344 398.480469 Z M 844.386719 345.308594 C 843.628906 342.78125 842.285156 340.765625 839.59375 340.175781 C 836.730469 339.585938 834.628906 341.101562 833.03125 343.289062 C 830 347.664062 829.074219 352.625 831.011719 357.675781 C 832.863281 362.722656 837.910156 363.5625 841.527344 359.527344 C 844.050781 356.664062 844.890625 353.214844 845.0625 348.925781 C 844.890625 348.082031 844.808594 346.652344 844.386719 345.308594 Z M 743.257812 301.640625 C 745.78125 298.949219 745.363281 295.753906 742.5 293.902344 C 737.285156 290.535156 726.261719 292.976562 722.980469 298.191406 C 721.300781 300.800781 721.804688 303.578125 724.664062 304.921875 C 726.601562 305.847656 728.789062 306.269531 729.964844 306.605469 C 735.601562 306.269531 739.976562 305.257812 743.257812 301.640625 Z M 787.511719 315.4375 C 790.207031 312.496094 789.449219 309.046875 786 307.277344 C 780.867188 304.753906 771.445312 306.6875 767.824219 311.148438 C 765.21875 314.261719 765.976562 317.710938 769.761719 319.308594 C 771.445312 319.984375 773.292969 320.234375 774.472656 320.402344 C 779.855469 320.066406 784.230469 318.972656 787.511719 315.4375 Z M 823.605469 284.140625 C 826.046875 281.449219 825.542969 278.253906 822.679688 276.402344 C 817.550781 273.203125 806.695312 275.558594 803.332031 280.691406 C 801.5625 283.382812 802.066406 286.246094 805.011719 287.675781 C 806.863281 288.601562 808.96875 288.9375 810.0625 289.191406 C 815.949219 288.851562 820.324219 287.757812 823.605469 284.140625 Z M 777.417969 268.828125 C 779.855469 266.136719 779.4375 262.941406 776.574219 261.089844 C 771.445312 257.808594 760.589844 260.164062 757.226562 265.210938 C 755.375 267.988281 755.964844 270.933594 758.992188 272.363281 C 760.757812 273.203125 762.863281 273.457031 763.871094 273.792969 C 769.675781 273.539062 774.050781 272.445312 777.417969 268.828125 Z M 763.199219 371.726562 C 767.742188 373.238281 771.273438 370.882812 771.359375 366.089844 C 771.445312 360.621094 766.984375 354.308594 761.769531 352.542969 C 757.226562 351.027344 753.777344 353.46875 753.777344 358.347656 C 753.777344 363.816406 758.148438 370.042969 763.199219 371.726562 Z M 763.199219 371.726562 " fill-opacity="1" fill-rule="nonzero"/></g></svg>