<svg xmlns="http://www.w3.org/2000/svg" xmlns:xlink="http://www.w3.org/1999/xlink" width="1920" zoomAndPan="magnify" viewBox="0 0 1440 809.999993" height="1080" preserveAspectRatio="xMidYMid meet" version="1.0"><defs><clipPath id="c59d794204"><path d="M 257.144531 0 L 1183 0 L 1183 810 L 257.144531 810 Z M 257.144531 0 " clip-rule="nonzero"/></clipPath><clipPath id="29a26e4372"><path d="M 293.84375 129.332031 C 218.785156 252.988281 271.664062 373.347656 338.117188 437.226562 L 726.660156 810 L 1107.003906 438.558594 C 1168.808594 369.839844 1192.5 296.949219 1179.339844 215.785156 C 1161.167969 103.507812 1068.644531 16.398438 954.347656 3.960938 C 884.246094 -3.589844 816.527344 16.25 763.679688 60.167969 C 749.453125 71.984375 736.738281 85.195312 725.65625 99.554688 C 712.507812 83.207031 697.09375 68.25 679.65625 54.996094 C 618.878906 8.808594 541.515625 -9.53125 467.203125 4.730469 C 396.824219 18.328125 333.648438 63.726562 293.84375 129.332031 Z M 293.84375 129.332031 " clip-rule="nonzero"/></clipPath></defs><g clip-path="url(#c59d794204)"><g clip-path="url(#29a26e4372)"><path fill="#000000" d="M 257.144531 0 L 1184.214844 0 L 1184.214844 810 L 257.144531 810 Z M 257.144531 0 " fill-opacity="1" fill-rule="nonzero"/></g></g></svg>