<svg xmlns="http://www.w3.org/2000/svg" xmlns:xlink="http://www.w3.org/1999/xlink" width="1920" zoomAndPan="magnify" viewBox="0 0 1440 809.999993" height="1080" preserveAspectRatio="xMidYMid meet" version="1.0"><defs><g/><clipPath id="a0a3fbae34"><path d="M 274.433594 313.3125 L 477.683594 313.3125 L 477.683594 463 L 274.433594 463 Z M 274.433594 313.3125 " clip-rule="nonzero"/></clipPath></defs><g clip-path="url(#a0a3fbae34)"><path fill="#000000" d="M 375.8125 314.109375 C 376.902344 313.863281 377.996094 313.492188 379.132812 313.460938 C 381.636719 313.371094 384.175781 314.476562 385.789062 316.394531 C 386.386719 317.117188 386.804688 317.976562 387.265625 318.808594 C 394.644531 318.316406 402.035156 317.855469 409.414062 317.394531 C 411.613281 317.148438 413.875 317.824219 415.5625 319.238281 C 417.300781 320.632812 418.300781 322.738281 418.578125 324.917969 C 426.433594 325.933594 434.300781 326.855469 442.15625 327.835938 C 443.710938 328.050781 445.203125 328.726562 446.386719 329.769531 C 448.292969 331.445312 449.398438 334.011719 449.214844 336.558594 C 456.316406 339.03125 463.417969 341.457031 470.519531 343.898438 C 471.65625 344.296875 472.839844 344.605469 473.839844 345.3125 C 476.222656 346.863281 477.683594 349.703125 477.558594 352.546875 C 477.46875 353.542969 477.253906 354.542969 476.898438 355.476562 C 465.230469 389.292969 453.5625 423.109375 441.894531 456.921875 C 440.496094 460.871094 435.703125 463.25 431.71875 461.867188 C 416.425781 456.617188 401.160156 451.320312 385.878906 446.082031 C 385.28125 445.898438 384.652344 445.867188 384.035156 445.757812 C 380.5625 445.285156 377.074219 444.929688 373.597656 444.453125 C 372.445312 444.285156 371.277344 444.132812 370.125 444.253906 C 368.632812 444.40625 367.125 444.332031 365.667969 444.636719 C 362.207031 445.484375 358.75 446.375 355.273438 447.234375 C 354.015625 447.496094 352.847656 448.03125 351.691406 448.570312 C 344.34375 451.855469 336.996094 455.128906 329.648438 458.398438 C 326.46875 459.734375 322.5625 458.707031 320.347656 456.09375 C 319.425781 455.082031 318.964844 453.761719 318.398438 452.53125 C 304.164062 420.714844 289.957031 388.894531 275.707031 357.074219 C 275.09375 355.785156 274.523438 354.449219 274.433594 353.007812 L 274.433594 351.746094 C 274.695312 348.921875 276.460938 346.21875 279.074219 345.019531 C 286.636719 341.609375 294.214844 338.261719 301.78125 334.871094 C 302.179688 334.671875 302.65625 334.5625 302.949219 334.195312 C 303.960938 333.027344 305.191406 332 306.667969 331.476562 C 309.296875 330.601562 312.125 330.339844 314.644531 329.125 C 324.777344 324.613281 334.90625 320.082031 345.035156 315.566406 C 348.804688 313.707031 353.800781 315.382812 355.75 319.082031 C 362.453125 317.515625 369.125 315.765625 375.8125 314.109375 Z M 376.132812 315.765625 C 369.539062 317.394531 362.960938 319.082031 356.367188 320.695312 C 356.242188 320.726562 356.121094 320.789062 356.011719 320.863281 C 358.917969 320.511719 361.839844 320.464844 364.742188 320.203125 C 365.191406 320.1875 365.542969 319.914062 365.941406 319.726562 C 367.339844 319.007812 368.972656 318.851562 370.523438 319.007812 C 372.429688 319.160156 374.304688 319.710938 376.210938 319.496094 C 379.285156 319.28125 382.359375 319.113281 385.433594 318.914062 C 384.390625 316.765625 382.128906 315.242188 379.730469 315.136719 C 378.5 315.042969 377.316406 315.503906 376.132812 315.765625 Z M 346.972656 316.671875 C 346.328125 316.808594 345.742188 317.117188 345.144531 317.378906 C 337.613281 320.757812 330.050781 324.058594 322.546875 327.5 C 325.558594 326.667969 328.605469 325.964844 331.632812 325.179688 C 331.832031 325.148438 331.925781 324.964844 332.046875 324.84375 C 333.398438 323.230469 335.398438 322.167969 337.503906 321.953125 C 340.625 321.722656 343.761719 321.601562 346.882812 321.324219 C 349.292969 320.832031 351.648438 320.097656 354.042969 319.589844 C 352.660156 317.210938 349.617188 316.042969 346.972656 316.671875 Z M 407.09375 319.207031 C 399.332031 319.699219 391.582031 320.203125 383.820312 320.679688 C 387.910156 321.109375 391.984375 321.695312 396.070312 322.15625 C 396.535156 321.910156 396.949219 321.585938 397.441406 321.371094 C 399.40625 320.375 401.761719 320.1875 403.835938 320.941406 C 406.710938 321.925781 409.585938 322.921875 412.457031 323.90625 C 413.8125 324.488281 415.316406 324.488281 416.746094 324.71875 C 416.546875 322.078125 414.410156 319.804688 411.875 319.191406 C 410.308594 318.777344 408.691406 319.191406 407.09375 319.207031 Z M 362.929688 326.070312 C 358.535156 361.574219 354.167969 397.078125 349.785156 432.582031 C 349.679688 433.335938 349.585938 434.105469 349.695312 434.855469 C 350.03125 437.652344 352.308594 440.09375 355.105469 440.507812 C 360.59375 441.246094 366.097656 441.84375 371.585938 442.582031 C 372.398438 442.703125 373.199219 442.902344 374.027344 442.902344 C 375.335938 442.886719 376.597656 443.257812 377.902344 443.289062 C 373.089844 441.75 368.355469 440.015625 363.574219 438.417969 C 361.53125 437.757812 359.734375 436.316406 358.71875 434.410156 C 357.671875 432.445312 357.457031 430.066406 358.164062 427.945312 C 369.679688 394.605469 381.175781 361.269531 392.691406 327.929688 C 393.167969 326.453125 393.660156 324.949219 394.597656 323.691406 C 386.371094 322.644531 378.132812 321.648438 369.894531 320.632812 C 366.664062 320.34375 363.390625 322.832031 362.929688 326.070312 Z M 337.472656 323.644531 C 334.277344 324.011719 331.632812 327.082031 331.769531 330.292969 C 334.046875 366.226562 336.351562 402.164062 338.625 438.097656 C 338.796875 440.707031 340.703125 443.101562 343.222656 443.855469 C 344.835938 444.378906 346.558594 444.039062 348.21875 443.976562 C 352.9375 443.671875 357.671875 443.378906 362.390625 443.085938 C 360.085938 442.75 357.75 442.550781 355.445312 442.242188 C 353.351562 442.011719 351.324219 441.03125 349.972656 439.402344 C 348.511719 437.710938 347.789062 435.410156 348.019531 433.183594 C 352.398438 397.707031 356.765625 362.21875 361.164062 326.730469 C 361.285156 325.011719 361.914062 323.320312 363.007812 321.96875 C 354.507812 322.585938 345.988281 323.058594 337.472656 323.644531 Z M 399.960938 322.277344 C 397.992188 322.628906 396.242188 323.9375 395.320312 325.703125 C 395.011719 326.269531 394.84375 326.898438 394.628906 327.5 C 383.128906 360.824219 371.613281 394.160156 360.117188 427.484375 C 359.503906 428.988281 359.226562 430.695312 359.6875 432.277344 C 360.222656 434.351562 361.898438 436.039062 363.914062 436.746094 C 385.820312 444.269531 407.707031 451.839844 429.597656 459.367188 C 430.75 459.734375 431.875 460.210938 433.058594 460.457031 C 436.070312 461.054688 439.3125 459.136719 440.328125 456.261719 C 452.074219 422.234375 463.816406 388.21875 475.5625 354.1875 C 476.5 351.453125 475.253906 348.199219 472.824219 346.664062 C 472.054688 346.15625 471.148438 345.941406 470.289062 345.621094 C 447.890625 337.878906 425.496094 330.1875 403.097656 322.460938 C 402.097656 322.125 400.992188 322.109375 399.960938 322.277344 Z M 421.375 326.976562 C 428.367188 329.402344 435.363281 331.8125 442.359375 334.210938 C 444.109375 334.839844 445.863281 335.484375 447.660156 335.976562 C 447.523438 335.574219 447.476562 335.175781 447.414062 334.761719 C 447.09375 332.828125 445.800781 331.121094 444.078125 330.214844 C 442.589844 329.417969 440.867188 329.386719 439.222656 329.171875 C 433.273438 328.449219 427.324219 327.683594 421.375 326.976562 Z M 329.019531 327.574219 C 322.238281 329.25 315.476562 330.96875 308.710938 332.671875 C 306.574219 333.011719 304.625 334.378906 303.640625 336.296875 C 302.902344 337.695312 302.777344 339.355469 303.164062 340.875 C 311.785156 375.179688 320.394531 409.488281 329.003906 443.777344 C 329.25 444.914062 329.542969 446.082031 330.15625 447.09375 C 331.261719 448.9375 333.324219 450.136719 335.460938 450.214844 C 336.75 450.304688 337.980469 449.828125 339.226562 449.550781 C 345.050781 448.109375 350.878906 446.605469 356.703125 445.175781 C 356.78125 445.144531 356.917969 445.082031 356.996094 445.054688 C 353.351562 445.390625 349.710938 445.558594 346.066406 445.804688 C 344.5 445.960938 342.898438 445.667969 341.484375 444.960938 C 339.550781 443.992188 338.011719 442.226562 337.367188 440.167969 C 336.828125 438.402344 336.890625 436.546875 336.765625 434.71875 C 334.597656 400.75 332.433594 366.765625 330.265625 332.796875 C 330.140625 330.953125 329.894531 329.003906 330.664062 327.238281 C 330.09375 327.222656 329.558594 327.4375 329.019531 327.574219 Z M 297.523438 338.617188 C 291.632812 341.242188 285.761719 343.867188 279.875 346.496094 C 277.414062 347.601562 275.863281 350.347656 276.109375 353.019531 C 276.246094 354.328125 276.816406 355.523438 277.367188 356.707031 C 291.558594 388.449219 305.746094 420.175781 319.933594 451.917969 C 320.472656 453.160156 320.964844 454.464844 321.980469 455.417969 C 323.746094 457.183594 326.589844 457.84375 328.925781 456.894531 C 334.09375 454.636719 339.210938 452.285156 344.375 450.027344 C 341.992188 450.488281 339.6875 451.242188 337.320312 451.734375 C 335.367188 452.148438 333.277344 451.75 331.554688 450.75 C 329.710938 449.675781 328.3125 447.847656 327.773438 445.773438 C 319.011719 410.871094 310.25 375.949219 301.488281 341.042969 C 301.148438 339.613281 301.304688 338.109375 301.625 336.683594 C 300.335938 337.496094 298.875 337.957031 297.523438 338.617188 Z M 297.523438 338.617188 " fill-opacity="1" fill-rule="nonzero"/></g><path fill="#000000" d="M 373.042969 324.703125 C 373.167969 324.425781 373.277344 324.136719 373.398438 323.859375 C 373.628906 323.90625 373.9375 323.921875 374.058594 324.167969 C 374.183594 324.425781 374.105469 324.703125 374.074219 324.980469 C 375.074219 325.226562 376.089844 325.488281 377.074219 325.792969 C 376.996094 326.085938 376.917969 326.394531 376.839844 326.699219 C 375.8125 326.46875 374.796875 326.164062 373.765625 325.933594 C 372.921875 329.234375 372.03125 332.519531 371.183594 335.835938 C 374.472656 333.195312 377.75 330.507812 380.992188 327.804688 C 379.992188 327.527344 378.976562 327.285156 377.980469 327.007812 C 378.070312 326.699219 378.148438 326.378906 378.226562 326.070312 C 379.59375 326.410156 380.945312 326.824219 382.328125 327.070312 C 383.066406 327.300781 383.789062 327.542969 384.542969 327.714844 C 384.464844 328.019531 384.375 328.328125 384.296875 328.648438 C 383.621094 328.480469 382.929688 328.3125 382.269531 328.113281 C 379.929688 329.941406 377.671875 331.859375 375.382812 333.734375 C 376.164062 337.742188 376.933594 341.765625 377.765625 345.773438 C 378.363281 346.050781 379.023438 346.140625 379.65625 346.308594 C 379.59375 346.632812 379.53125 346.941406 379.441406 347.246094 C 377.304688 346.816406 375.226562 346.140625 373.105469 345.621094 C 373.183594 345.296875 373.277344 344.988281 373.351562 344.683594 C 374.460938 344.960938 375.550781 345.265625 376.65625 345.542969 C 375.933594 341.855469 375.210938 338.171875 374.472656 334.484375 C 373.214844 335.515625 371.890625 336.46875 370.738281 337.617188 C 370.15625 339.585938 369.695312 341.582031 369.15625 343.5625 C 370.171875 343.882812 371.230469 344.097656 372.246094 344.40625 C 372.136719 344.714844 372 345.019531 371.859375 345.3125 C 370.894531 345.035156 369.910156 344.789062 368.941406 344.527344 C 368.847656 344.789062 368.742188 345.035156 368.648438 345.296875 C 368.355469 345.25 368.0625 345.203125 367.773438 345.160156 C 367.832031 344.867188 367.878906 344.574219 367.941406 344.269531 C 367.171875 344.066406 366.402344 343.867188 365.636719 343.667969 C 365.710938 343.363281 365.804688 343.039062 365.898438 342.730469 C 366.664062 342.933594 367.433594 343.132812 368.203125 343.332031 C 369.738281 337.449219 371.292969 331.566406 372.8125 325.6875 C 372.046875 325.472656 371.277344 325.273438 370.507812 325.070312 C 370.585938 324.765625 370.675781 324.441406 370.753906 324.136719 C 371.539062 324.304688 372.292969 324.488281 373.042969 324.703125 Z M 373.042969 324.703125 " fill-opacity="1" fill-rule="nonzero"/><path fill="#000000" d="M 341.394531 327.789062 C 342.191406 327.191406 343.238281 327.054688 344.222656 327.070312 C 345.4375 327.097656 346.683594 327.636719 347.359375 328.679688 C 348.1875 329.925781 348.371094 331.445312 348.496094 332.902344 C 348.632812 334.699219 348.558594 336.496094 348.574219 338.292969 C 348.585938 340.445312 348.527344 342.640625 347.789062 344.683594 C 348.679688 345.359375 349.816406 345.632812 350.925781 345.664062 C 350.925781 345.988281 350.925781 346.296875 350.941406 346.617188 C 349.648438 346.632812 348.355469 346.265625 347.296875 345.527344 C 345.589844 347.539062 341.933594 347.507812 340.457031 345.25 C 339.378906 343.421875 339.378906 341.226562 339.304688 339.183594 C 338.519531 339.0625 337.734375 339.015625 336.949219 339 C 336.964844 338.679688 336.964844 338.355469 336.964844 338.03125 C 337.75 338.03125 338.535156 338.078125 339.304688 338.1875 C 339.332031 335.605469 339.148438 332.980469 339.765625 330.445312 C 339.996094 329.417969 340.53125 328.421875 341.394531 327.789062 Z M 341.394531 329.15625 C 340.671875 330.15625 340.503906 331.414062 340.378906 332.597656 C 340.210938 334.53125 340.242188 336.46875 340.273438 338.402344 C 341.5625 338.753906 342.792969 339.355469 343.808594 340.246094 C 345.050781 341.304688 345.914062 342.71875 347.003906 343.914062 C 347.742188 341.71875 347.605469 339.355469 347.621094 337.066406 C 347.621094 335.421875 347.664062 333.78125 347.464844 332.136719 C 347.296875 330.984375 347.097656 329.742188 346.265625 328.878906 C 345.683594 328.234375 344.761719 328.066406 343.929688 328.035156 C 342.976562 328.035156 341.960938 328.34375 341.394531 329.15625 Z M 340.285156 339.414062 C 340.332031 340.9375 340.378906 342.5 340.902344 343.945312 C 341.195312 344.730469 341.746094 345.480469 342.5625 345.757812 C 343.898438 346.25 345.605469 346.035156 346.542969 344.882812 C 345.421875 343.636719 344.515625 342.210938 343.285156 341.074219 C 342.421875 340.289062 341.394531 339.738281 340.285156 339.414062 Z M 340.285156 339.414062 " fill-opacity="1" fill-rule="nonzero"/><path fill="#000000" d="M 395.394531 343.851562 C 398.917969 338.324219 402.375 332.78125 405.863281 327.238281 C 406.140625 327.34375 406.417969 327.4375 406.695312 327.542969 C 405.925781 334.039062 405.140625 340.535156 404.449219 347.03125 C 405.082031 347.230469 405.695312 347.445312 406.292969 347.722656 C 406.1875 348 406.078125 348.277344 405.972656 348.566406 C 404.265625 347.984375 402.558594 347.355469 400.835938 346.785156 C 400.929688 346.480469 401.023438 346.171875 401.113281 345.863281 C 401.914062 346.140625 402.714844 346.402344 403.496094 346.710938 C 403.636719 345.417969 403.773438 344.128906 403.941406 342.839844 C 402.082031 342.179688 400.238281 341.472656 398.363281 340.90625 C 397.71875 342.027344 396.996094 343.101562 396.332031 344.191406 C 397.132812 344.46875 397.933594 344.742188 398.714844 345.035156 C 398.59375 345.328125 398.46875 345.621094 398.347656 345.910156 C 396.640625 345.296875 394.949219 344.699219 393.226562 344.113281 C 393.320312 343.808594 393.414062 343.515625 393.503906 343.207031 C 394.152344 343.40625 394.765625 343.621094 395.394531 343.851562 Z M 398.960938 340.042969 C 400.636719 340.660156 402.34375 341.210938 404.019531 341.839844 C 404.605469 337.789062 404.972656 333.703125 405.496094 329.632812 C 403.328125 333.117188 401.097656 336.558594 398.960938 340.042969 Z M 398.960938 340.042969 " fill-opacity="1" fill-rule="nonzero"/><path fill="#000000" d="M 313.355469 334.515625 C 315.660156 333.980469 317.964844 333.425781 320.257812 332.875 C 320.332031 333.179688 320.410156 333.488281 320.488281 333.792969 C 318.195312 334.394531 315.875 334.886719 313.570312 335.46875 C 313.507812 335.160156 313.433594 334.839844 313.355469 334.515625 Z M 313.355469 334.515625 " fill-opacity="1" fill-rule="nonzero"/><path fill="#000000" d="M 316.644531 335.222656 C 316.953125 335.128906 317.273438 335.054688 317.597656 334.960938 C 318.671875 339.507812 319.75 344.039062 320.839844 348.566406 C 321.179688 349.949219 320.78125 351.53125 319.71875 352.515625 C 318.660156 353.496094 317.199219 353.925781 315.785156 354.050781 C 314.476562 354.171875 313.0625 353.773438 312.1875 352.777344 C 311.480469 352.023438 311.171875 351.007812 310.957031 350.011719 C 311.28125 349.933594 311.585938 349.859375 311.910156 349.78125 C 312.078125 351.023438 312.726562 352.34375 313.9375 352.835938 C 315.414062 353.375 317.074219 353.003906 318.414062 352.269531 C 319.65625 351.609375 320.273438 350.027344 319.886719 348.691406 C 318.796875 344.207031 317.75 339.707031 316.644531 335.222656 Z M 316.644531 335.222656 " fill-opacity="1" fill-rule="nonzero"/><path fill="#000000" d="M 288.050781 346.066406 C 289.742188 345.695312 291.710938 346.449219 292.464844 348.078125 C 294.292969 352.113281 296.0625 356.183594 297.875 360.222656 C 298.382812 361.375 298.257812 362.789062 297.566406 363.847656 C 296.722656 365.199219 295.0625 365.964844 293.496094 365.765625 C 292.15625 365.628906 290.925781 364.738281 290.390625 363.507812 C 288.589844 359.472656 286.777344 355.433594 285.007812 351.378906 C 284.117188 349.152344 285.746094 346.496094 288.050781 346.066406 Z M 288.023438 347.109375 C 286.40625 347.554688 285.347656 349.441406 285.945312 351.023438 C 287.714844 355.078125 289.542969 359.117188 291.328125 363.171875 C 292.125 364.847656 294.585938 365.292969 295.984375 364.109375 C 297 363.324219 297.492188 361.835938 296.953125 360.636719 C 295.167969 356.628906 293.402344 352.621094 291.601562 348.613281 C 291.019531 347.292969 289.359375 346.710938 288.023438 347.109375 Z M 288.023438 347.109375 " fill-opacity="1" fill-rule="nonzero"/><path fill="#000000" d="M 367.296875 351.007812 C 367.511719 349.457031 368.972656 348.230469 370.523438 348.167969 C 371.429688 348.136719 372.351562 348.367188 373.105469 348.890625 C 374.335938 349.703125 374.9375 351.378906 374.460938 352.777344 C 374.089844 353.851562 373.214844 354.664062 372.292969 355.292969 C 373.183594 355.171875 374.121094 355.261719 374.9375 355.664062 C 375.875 356.125 376.625 356.984375 376.855469 358.027344 C 377.148438 359.410156 376.597656 360.960938 375.414062 361.757812 C 374.242188 362.632812 372.507812 362.605469 371.339844 361.742188 C 370.371094 361.066406 369.941406 359.917969 369.617188 358.824219 C 369.09375 360.4375 369.109375 362.25 369.910156 363.769531 C 368.554688 363.417969 367.21875 363.0625 365.867188 362.726562 C 367.355469 361.820312 368.1875 360.175781 368.632812 358.550781 C 367.925781 359.195312 367.171875 359.824219 366.25 360.117188 C 365.050781 360.5 363.636719 360.160156 362.761719 359.242188 C 361.777344 358.226562 361.4375 356.613281 362.023438 355.324219 C 362.5625 353.910156 364.128906 353.050781 365.605469 353.207031 C 366.449219 353.25 367.21875 353.652344 367.910156 354.097656 C 367.480469 353.128906 367.109375 352.085938 367.296875 351.007812 Z M 367.296875 351.007812 " fill-opacity="1" fill-rule="nonzero"/><path fill="#000000" d="M 394.242188 350.964844 C 394.65625 349.628906 396.027344 348.722656 397.410156 348.738281 C 398.46875 348.753906 399.5625 349.199219 400.253906 350.011719 C 401.066406 350.949219 401.34375 352.359375 400.792969 353.480469 C 400.332031 354.417969 399.5 355.09375 398.609375 355.617188 C 399.914062 355.476562 401.269531 356.046875 402.066406 357.089844 C 402.820312 358.027344 402.914062 359.410156 402.390625 360.484375 C 401.667969 362.003906 399.761719 362.878906 398.164062 362.234375 C 396.71875 361.742188 396.042969 360.207031 395.734375 358.824219 C 395.121094 360.285156 395.027344 361.972656 395.640625 363.449219 C 394.410156 363.019531 393.167969 362.574219 391.921875 362.144531 C 393.320312 361.359375 394.304688 359.992188 394.765625 358.472656 C 393.8125 359.117188 392.765625 359.871094 391.554688 359.761719 C 390.046875 359.703125 388.738281 358.472656 388.492188 357.015625 C 388.1875 355.433594 389.140625 353.667969 390.707031 353.191406 C 392.042969 352.761719 393.550781 353.207031 394.550781 354.171875 C 394.179688 353.191406 393.921875 352.039062 394.242188 350.964844 Z M 394.242188 350.964844 " fill-opacity="1" fill-rule="nonzero"/><path fill="#000000" d="M 278.96875 349.519531 C 279.273438 349.367188 279.582031 349.226562 279.890625 349.089844 C 282.839844 355.753906 285.808594 362.390625 288.730469 369.054688 C 288.421875 369.175781 288.128906 369.316406 287.820312 369.453125 C 284.871094 362.804688 281.933594 356.152344 278.96875 349.519531 Z M 278.96875 349.519531 " fill-opacity="1" fill-rule="nonzero"/><path fill="#000000" d="M 341.824219 350.472656 C 342.652344 349.886719 343.714844 349.75 344.683594 349.902344 C 346.082031 350.148438 347.3125 351.269531 347.542969 352.683594 C 347.773438 354.066406 347.050781 355.402344 346.128906 356.382812 C 347.496094 355.785156 349.21875 355.863281 350.386719 356.859375 C 351.476562 357.75 351.816406 359.332031 351.371094 360.621094 C 351.015625 361.636719 350.1875 362.496094 349.15625 362.820312 C 348.1875 363.140625 347.066406 363.003906 346.207031 362.417969 C 345.4375 361.914062 344.929688 361.128906 344.453125 360.363281 C 344.421875 362.035156 344.804688 363.816406 346.019531 365.046875 C 344.636719 365.0625 343.253906 365.074219 341.871094 365.046875 C 343.085938 363.816406 343.453125 362.035156 343.453125 360.363281 C 342.730469 361.621094 341.625 362.878906 340.085938 362.988281 C 338.027344 363.234375 336.105469 361.222656 336.351562 359.179688 C 336.414062 357.535156 337.875 356.167969 339.472656 356.015625 C 340.257812 355.910156 341.054688 356.109375 341.777344 356.398438 C 341.039062 355.585938 340.410156 354.585938 340.316406 353.453125 C 340.210938 352.285156 340.839844 351.117188 341.824219 350.472656 Z M 341.824219 350.472656 " fill-opacity="1" fill-rule="nonzero"/><path fill="#000000" d="M 317.503906 356.90625 C 318.441406 356.308594 319.640625 356.09375 320.71875 356.414062 C 321.871094 356.722656 322.824219 357.703125 323.054688 358.871094 C 323.269531 359.992188 322.917969 361.128906 322.394531 362.113281 C 323.46875 361.296875 324.945312 361.039062 326.222656 361.484375 C 327.097656 361.789062 327.789062 362.511719 328.144531 363.371094 C 328.589844 364.507812 328.375 365.875 327.636719 366.84375 C 327.035156 367.65625 326.007812 368.132812 325.007812 368.148438 C 323.714844 368.117188 322.578125 367.347656 321.71875 366.425781 C 322.023438 368.039062 322.855469 369.605469 324.269531 370.496094 C 322.945312 370.820312 321.609375 371.140625 320.273438 371.449219 C 321.148438 370.019531 321.117188 368.238281 320.734375 366.65625 C 320.425781 367.332031 320.210938 368.054688 319.75 368.640625 C 319.105469 369.542969 317.980469 370.082031 316.859375 370.019531 C 315.554688 369.988281 314.324219 369.097656 313.847656 367.886719 C 313.371094 366.765625 313.492188 365.382812 314.292969 364.429688 C 315.199219 363.292969 316.765625 362.878906 318.167969 363.125 C 317.230469 362.511719 316.382812 361.652344 316.074219 360.546875 C 315.675781 359.195312 316.335938 357.660156 317.503906 356.90625 Z M 317.503906 356.90625 " fill-opacity="1" fill-rule="nonzero"/><path fill="#000000" d="M 292.863281 369.898438 C 293.679688 369.113281 294.847656 368.683594 295.984375 368.871094 C 297.105469 369.007812 298.136719 369.789062 298.519531 370.851562 C 298.875 371.863281 298.734375 372.96875 298.429688 373.96875 C 299.398438 372.878906 301.011719 372.308594 302.425781 372.816406 C 304.023438 373.339844 304.945312 375.257812 304.46875 376.855469 C 304.117188 378.28125 302.671875 379.328125 301.210938 379.21875 C 300.210938 379.1875 299.351562 378.652344 298.550781 378.128906 C 299.121094 379.589844 300.179688 380.925781 301.65625 381.539062 C 300.457031 382.058594 299.257812 382.597656 298.074219 383.121094 C 298.644531 381.601562 298.304688 379.925781 297.644531 378.496094 C 297.460938 379.742188 297.089844 381.140625 295.96875 381.859375 C 294.863281 382.644531 293.308594 382.550781 292.234375 381.769531 C 291.589844 381.339844 291.15625 380.632812 290.941406 379.894531 C 290.605469 378.683594 291.050781 377.300781 292.035156 376.53125 C 292.757812 375.917969 293.710938 375.65625 294.648438 375.640625 C 293.679688 375.226562 292.757812 374.597656 292.25 373.660156 C 291.558594 372.449219 291.878906 370.851562 292.863281 369.898438 Z M 292.863281 369.898438 " fill-opacity="1" fill-rule="nonzero"/><path fill="#000000" d="M 410.675781 378.742188 C 411.582031 374.460938 415.839844 371.355469 420.160156 371.355469 C 422.621094 371.371094 425.078125 372.140625 427.09375 373.566406 C 430.214844 375.734375 431.875 379.789062 431.152344 383.503906 C 430.722656 385.636719 429.460938 387.511719 427.90625 389 C 426.585938 390.261719 425.046875 391.257812 423.433594 392.105469 C 425.816406 391.859375 428.339844 392.105469 430.492188 393.238281 C 432.917969 394.4375 434.886719 396.574219 435.761719 399.136719 C 436.824219 402.238281 436.117188 405.800781 434.132812 408.382812 C 432.257812 410.898438 429.167969 412.496094 426 412.421875 C 423.328125 412.40625 420.683594 411.253906 418.882812 409.273438 C 416.855469 407.078125 415.996094 404.097656 415.472656 401.226562 C 414.503906 403.511719 413.886719 405.957031 413.78125 408.441406 C 413.71875 410.148438 413.828125 411.898438 414.394531 413.511719 C 414.609375 414.15625 414.839844 414.785156 415.042969 415.429688 C 411.335938 414.203125 407.648438 412.898438 403.972656 411.546875 C 405.15625 410.777344 406.433594 410.101562 407.449219 409.089844 C 410.03125 406.644531 411.582031 403.34375 412.734375 400.042969 C 411.246094 401.332031 409.691406 402.578125 407.894531 403.421875 C 405.988281 404.3125 403.820312 404.695312 401.730469 404.3125 C 398.808594 403.804688 396.132812 401.933594 394.75 399.304688 C 392.597656 395.453125 393.351562 390.214844 396.519531 387.128906 C 397.949219 385.683594 399.871094 384.777344 401.867188 384.488281 C 404.726562 384.058594 407.738281 384.746094 410.089844 386.421875 C 410.8125 386.929688 411.429688 387.542969 412.074219 388.125 C 410.785156 385.207031 409.96875 381.921875 410.675781 378.742188 Z M 410.675781 378.742188 " fill-opacity="1" fill-rule="nonzero"/><path fill="#000000" d="M 436.179688 422.785156 C 437.332031 423.199219 438.53125 423.539062 439.636719 424.046875 C 438.222656 424.644531 437.40625 426.101562 436.914062 427.484375 C 437.882812 426.609375 439.238281 425.886719 440.589844 426.289062 C 442.3125 426.703125 443.28125 428.789062 442.632812 430.402344 C 442.265625 431.476562 441.234375 432.277344 440.097656 432.398438 C 439.023438 432.523438 437.960938 432.0625 437.175781 431.355469 C 437.546875 432.261719 437.777344 433.289062 437.515625 434.257812 C 437.222656 435.378906 436.195312 436.191406 435.085938 436.375 C 433.824219 436.578125 432.472656 436.023438 431.734375 434.980469 C 431.183594 434.242188 431.027344 433.230469 431.304688 432.351562 C 431.660156 431.324219 432.550781 430.601562 433.441406 430.035156 C 432.042969 430.1875 430.550781 429.449219 429.9375 428.160156 C 429.292969 426.839844 429.8125 425.152344 430.996094 424.304688 C 432.152344 423.429688 433.917969 423.554688 434.933594 424.582031 C 435.625 425.226562 435.871094 426.179688 436.101562 427.054688 C 436.671875 425.734375 436.746094 424.152344 436.179688 422.785156 Z M 436.179688 422.785156 " fill-opacity="1" fill-rule="nonzero"/><path fill="#000000" d="M 426.507812 437.238281 C 426.554688 437.113281 426.664062 436.851562 426.707031 436.730469 C 428.214844 437.238281 429.707031 437.804688 431.226562 438.296875 C 431.167969 438.480469 431.105469 438.679688 431.027344 438.878906 C 430.289062 438.617188 429.566406 438.375 428.84375 438.097656 C 428.601562 439.371094 428.539062 440.675781 428.339844 441.949219 C 430.152344 442.550781 431.90625 443.332031 433.765625 443.777344 C 434.363281 442.65625 435.101562 441.628906 435.746094 440.539062 C 434.996094 440.292969 434.257812 440.015625 433.519531 439.753906 C 433.582031 439.617188 433.6875 439.339844 433.734375 439.203125 C 435.226562 439.753906 436.730469 440.261719 438.238281 440.800781 C 438.191406 440.9375 438.097656 441.230469 438.054688 441.367188 C 437.484375 441.167969 436.902344 440.96875 436.332031 440.769531 C 433.132812 445.882812 429.875 450.949219 426.722656 456.078125 C 426.507812 456.03125 426.308594 455.988281 426.109375 455.941406 C 426.816406 449.953125 427.523438 443.960938 428.199219 437.972656 C 427.691406 437.605469 427.0625 437.527344 426.507812 437.238281 Z M 428.308594 442.582031 C 427.785156 446.558594 427.386719 450.550781 426.878906 454.542969 C 428.324219 452.5 429.550781 450.335938 430.921875 448.230469 C 431.703125 446.925781 432.613281 445.683594 433.320312 444.316406 C 431.628906 443.777344 429.984375 443.148438 428.308594 442.582031 Z M 428.308594 442.582031 " fill-opacity="1" fill-rule="nonzero"/><g fill="#000000" fill-opacity="1"><g transform="translate(498.655517, 424.115535)"><g><path d="M 3.40625 -79 C 2.175781 -80.238281 1.5625 -81.710938 1.5625 -83.421875 C 1.5625 -85.140625 2.175781 -86.613281 3.40625 -87.84375 C 4.644531 -89.082031 6.117188 -89.703125 7.828125 -89.703125 L 7.890625 -89.703125 L 70.515625 -90.078125 L 70.640625 -90.078125 C 72.359375 -90.078125 73.832031 -89.457031 75.0625 -88.21875 C 76.289062 -86.988281 76.90625 -85.515625 76.90625 -83.796875 C 76.90625 -82.085938 76.289062 -80.613281 75.0625 -79.375 C 73.832031 -78.144531 72.359375 -77.53125 70.640625 -77.53125 L 70.578125 -77.53125 L 45.640625 -77.40625 L 45.3125 -5.453125 L 45.3125 -5.390625 C 45.3125 -3.722656 44.695312 -2.28125 43.46875 -1.0625 C 42.238281 0.144531 40.765625 0.75 39.046875 0.75 C 37.335938 0.75 35.863281 0.144531 34.625 -1.0625 C 33.394531 -2.28125 32.78125 -3.722656 32.78125 -5.390625 L 32.78125 -5.515625 L 33.09375 -77.34375 L 7.890625 -77.15625 L 7.828125 -77.15625 C 6.117188 -77.15625 4.644531 -77.769531 3.40625 -79 Z M 3.40625 -79 "/></g></g></g><g fill="#000000" fill-opacity="1"><g transform="translate(577.066705, 424.115535)"><g><path d="M 3.140625 -63.5 C 3.140625 -64.832031 3.734375 -66.03125 4.921875 -67.09375 C 6.109375 -68.164062 7.414062 -68.703125 8.84375 -68.703125 C 10.21875 -68.703125 11.46875 -68.300781 12.59375 -67.5 C 13.726562 -66.707031 14.460938 -65.726562 14.796875 -64.5625 L 27.328125 -22 L 42.1875 -63.75 L 42.25 -63.75 C 42.707031 -64.539062 43.4375 -65.195312 44.4375 -65.71875 C 45.445312 -66.238281 46.554688 -66.5 47.765625 -66.5 C 48.972656 -66.5 50.097656 -66.238281 51.140625 -65.71875 C 52.191406 -65.195312 52.925781 -64.519531 53.34375 -63.6875 L 53.34375 -63.625 L 67.765625 -23 L 79.359375 -64.5 C 79.734375 -65.664062 80.441406 -66.65625 81.484375 -67.46875 C 82.535156 -68.289062 83.789062 -68.703125 85.25 -68.703125 C 86.625 -68.703125 87.925781 -68.1875 89.15625 -67.15625 C 90.394531 -66.132812 91.015625 -64.9375 91.015625 -63.5625 C 91.015625 -62.644531 90.929688 -61.910156 90.765625 -61.359375 L 74.34375 -3.453125 C 74.007812 -2.316406 73.304688 -1.320312 72.234375 -0.46875 C 71.171875 0.382812 69.972656 0.8125 68.640625 0.8125 C 67.378906 0.8125 66.226562 0.457031 65.1875 -0.25 C 64.144531 -0.957031 63.414062 -1.835938 63 -2.890625 L 47.828125 -44.8125 L 32.40625 -2.5 C 31.988281 -1.375 31.242188 -0.46875 30.171875 0.21875 C 29.109375 0.90625 27.953125 1.25 26.703125 1.25 C 25.410156 1.25 24.226562 0.863281 23.15625 0.09375 C 22.09375 -0.675781 21.394531 -1.671875 21.0625 -2.890625 L 3.328125 -61.296875 C 3.203125 -61.929688 3.140625 -62.664062 3.140625 -63.5 Z M 3.140625 -63.5 "/></g></g></g><g fill="#000000" fill-opacity="1"><g transform="translate(668.076181, 424.115535)"><g><path d="M 36.484375 -68.453125 C 41.953125 -68.453125 47.035156 -67.082031 51.734375 -64.34375 C 56.441406 -61.601562 60.195312 -57.863281 63 -53.125 C 65.800781 -48.382812 67.203125 -43.234375 67.203125 -37.671875 C 67.203125 -36.460938 67.140625 -35.269531 67.015625 -34.09375 C 66.835938 -32.550781 66.132812 -31.242188 64.90625 -30.171875 C 63.675781 -29.109375 62.285156 -28.578125 60.734375 -28.578125 L 16.921875 -28.515625 C 18.046875 -23.796875 20.519531 -19.734375 24.34375 -16.328125 C 28.175781 -12.921875 32.515625 -11.21875 37.359375 -11.21875 C 40.742188 -11.21875 43.878906 -12.039062 46.765625 -13.6875 C 49.648438 -15.34375 51.945312 -17.425781 53.65625 -19.9375 C 54.15625 -20.726562 54.90625 -21.394531 55.90625 -21.9375 C 56.914062 -22.476562 57.898438 -22.75 58.859375 -22.75 C 60.566406 -22.75 62.035156 -22.125 63.265625 -20.875 C 64.503906 -19.625 65.125 -18.140625 65.125 -16.421875 C 65.125 -15.085938 64.75 -13.894531 64 -12.84375 C 61.195312 -8.75 57.5 -5.382812 52.90625 -2.75 C 48.3125 -0.125 43.191406 1.1875 37.546875 1.1875 C 31.273438 1.1875 25.535156 -0.429688 20.328125 -3.671875 C 15.128906 -6.910156 11.066406 -11.222656 8.140625 -16.609375 C 5.222656 -22.003906 3.765625 -27.8125 3.765625 -34.03125 C 3.765625 -40.050781 5.203125 -45.691406 8.078125 -50.953125 C 10.960938 -56.222656 14.929688 -60.457031 19.984375 -63.65625 C 25.046875 -66.851562 30.546875 -68.453125 36.484375 -68.453125 Z M 54.28125 -41.125 C 53.445312 -45.300781 51.367188 -48.804688 48.046875 -51.640625 C 44.722656 -54.484375 40.867188 -55.90625 36.484375 -55.90625 C 32.097656 -55.90625 28.128906 -54.460938 24.578125 -51.578125 C 21.023438 -48.703125 18.617188 -45.195312 17.359375 -41.0625 Z M 54.28125 -41.125 "/></g></g></g><g fill="#000000" fill-opacity="1"><g transform="translate(738.965916, 424.115535)"><g><path d="M 18.484375 -58.734375 C 20.410156 -60.617188 22.132812 -62.164062 23.65625 -63.375 C 25.1875 -64.582031 27.242188 -65.75 29.828125 -66.875 C 32.421875 -68.007812 35.015625 -68.578125 37.609375 -68.578125 C 42.742188 -68.578125 47.171875 -67.21875 50.890625 -64.5 C 54.617188 -61.78125 57.421875 -58.3125 59.296875 -54.09375 C 61.179688 -49.832031 62.125 -44.003906 62.125 -36.609375 L 62.125 -4.953125 C 62.125 -3.234375 61.503906 -1.757812 60.265625 -0.53125 C 59.035156 0.695312 57.5625 1.3125 55.84375 1.3125 C 54.132812 1.3125 52.660156 0.695312 51.421875 -0.53125 C 50.191406 -1.757812 49.578125 -3.234375 49.578125 -4.953125 L 49.578125 -36.609375 C 49.578125 -42.242188 48.992188 -46.359375 47.828125 -48.953125 C 46.910156 -51.003906 45.59375 -52.695312 43.875 -54.03125 C 42.164062 -55.363281 40.117188 -56.03125 37.734375 -56.03125 C 31.628906 -56.03125 26.894531 -53.691406 23.53125 -49.015625 C 20.164062 -44.335938 18.503906 -37.945312 18.546875 -29.84375 L 18.609375 -4.828125 C 18.609375 -3.109375 17.992188 -1.632812 16.765625 -0.40625 C 15.535156 0.820312 14.0625 1.4375 12.34375 1.4375 C 10.59375 1.4375 9.109375 0.820312 7.890625 -0.40625 C 6.679688 -1.632812 6.078125 -3.128906 6.078125 -4.890625 L 5.953125 -62.5 C 5.953125 -64.289062 6.429688 -65.78125 7.390625 -66.96875 C 8.359375 -68.164062 9.675781 -68.765625 11.34375 -68.765625 C 14.226562 -68.765625 16.253906 -66.675781 17.421875 -62.5 Z M 18.484375 -58.734375 "/></g></g></g><g fill="#000000" fill-opacity="1"><g transform="translate(807.035084, 424.115535)"><g><path d="M 15.671875 -79.859375 C 15.671875 -81.566406 16.273438 -83.035156 17.484375 -84.265625 C 18.703125 -85.503906 20.1875 -86.125 21.9375 -86.125 C 23.65625 -86.125 25.128906 -85.503906 26.359375 -84.265625 C 27.585938 -83.035156 28.203125 -81.566406 28.203125 -79.859375 L 28.203125 -67.390625 L 36.609375 -67.390625 C 38.234375 -67.390625 39.628906 -66.800781 40.796875 -65.625 C 41.972656 -64.457031 42.5625 -63.054688 42.5625 -61.421875 C 42.5625 -59.796875 41.972656 -58.394531 40.796875 -57.21875 C 39.628906 -56.050781 38.234375 -55.46875 36.609375 -55.46875 L 28.140625 -55.46875 L 28.078125 -16.671875 L 28.078125 -16.546875 C 28.078125 -14.460938 28.304688 -13.039062 28.765625 -12.28125 C 29.234375 -11.53125 30.175781 -11.15625 31.59375 -11.15625 C 33.382812 -11.15625 34.972656 -11.632812 36.359375 -12.59375 C 37.648438 -13.476562 38.945312 -13.921875 40.25 -13.921875 C 41.957031 -13.921875 43.425781 -13.3125 44.65625 -12.09375 C 45.894531 -10.882812 46.515625 -9.421875 46.515625 -7.703125 C 46.515625 -5.660156 45.675781 -4.015625 44 -2.765625 C 40.320312 0.0351562 36.3125 1.4375 31.96875 1.4375 C 26.832031 1.4375 22.8125 -0.140625 19.90625 -3.296875 C 17 -6.453125 15.546875 -10.535156 15.546875 -15.546875 L 15.546875 -16.109375 L 15.609375 -55.40625 L 7.515625 -55.40625 C 5.890625 -55.40625 4.488281 -55.988281 3.3125 -57.15625 C 2.144531 -58.332031 1.5625 -59.734375 1.5625 -61.359375 C 1.5625 -62.992188 2.144531 -64.394531 3.3125 -65.5625 C 4.488281 -66.738281 5.890625 -67.328125 7.515625 -67.328125 L 15.671875 -67.328125 Z M 15.671875 -79.859375 "/></g></g></g><g fill="#000000" fill-opacity="1"><g transform="translate(855.047037, 424.115535)"><g><path d="M 7.828125 -69.015625 C 9.046875 -69.015625 10.1875 -68.660156 11.25 -67.953125 C 12.3125 -67.242188 13.078125 -66.363281 13.546875 -65.3125 L 34.859375 -16.859375 L 53.09375 -64.875 C 53.550781 -66 54.320312 -66.9375 55.40625 -67.6875 C 56.5 -68.445312 57.671875 -68.828125 58.921875 -68.828125 C 60.628906 -68.828125 62.097656 -68.207031 63.328125 -66.96875 C 64.566406 -65.738281 65.1875 -64.269531 65.1875 -62.5625 C 65.1875 -61.675781 65.019531 -60.859375 64.6875 -60.109375 L 41.625 0.0625 C 41.5 0.8125 41.144531 1.664062 40.5625 2.625 L 37.046875 11.40625 C 36.296875 13.332031 35.632812 14.898438 35.0625 16.109375 C 34.5 17.316406 33.664062 18.804688 32.5625 20.578125 C 31.457031 22.359375 30.234375 23.921875 28.890625 25.265625 C 26.765625 27.515625 24.21875 29.335938 21.25 30.734375 C 18.28125 32.140625 15.25 32.84375 12.15625 32.84375 C 10.40625 32.84375 8.921875 32.210938 7.703125 30.953125 C 6.492188 29.703125 5.890625 28.203125 5.890625 26.453125 C 5.890625 24.773438 6.460938 23.320312 7.609375 22.09375 C 8.765625 20.863281 10.15625 20.226562 11.78125 20.1875 C 15.125 19.976562 17.804688 18.710938 19.828125 16.390625 C 21.859375 14.066406 23.734375 10.816406 25.453125 6.640625 L 28.453125 -1 L 2.125 -60.046875 C 1.75 -60.921875 1.5625 -61.820312 1.5625 -62.75 C 1.5625 -64.457031 2.175781 -65.925781 3.40625 -67.15625 C 4.644531 -68.394531 6.117188 -69.015625 7.828125 -69.015625 Z M 7.828125 -69.015625 "/></g></g></g><g fill="#000000" fill-opacity="1"><g transform="translate(921.799972, 424.115535)"><g><path d="M 47.265625 -78.234375 C 41.242188 -78.234375 35.796875 -76.625 30.921875 -73.40625 C 26.054688 -70.1875 22.296875 -65.921875 19.640625 -60.609375 C 16.992188 -55.304688 15.671875 -49.539062 15.671875 -43.3125 C 15.671875 -37.675781 17.070312 -32.367188 19.875 -27.390625 C 22.675781 -22.421875 26.5 -18.441406 31.34375 -15.453125 C 36.1875 -12.460938 41.410156 -10.96875 47.015625 -10.96875 C 52.566406 -10.96875 57.816406 -12.515625 62.765625 -15.609375 C 67.722656 -18.703125 71.632812 -22.710938 74.5 -27.640625 C 77.363281 -32.578125 78.796875 -37.695312 78.796875 -43 C 78.796875 -49.394531 77.394531 -55.285156 74.59375 -60.671875 C 71.789062 -66.066406 67.972656 -70.34375 63.140625 -73.5 C 58.316406 -76.65625 53.023438 -78.234375 47.265625 -78.234375 Z M 47.015625 -90.953125 C 55.328125 -90.953125 62.878906 -88.8125 69.671875 -84.53125 C 76.460938 -80.25 81.738281 -74.546875 85.5 -67.421875 C 89.257812 -60.296875 91.140625 -52.550781 91.140625 -44.1875 C 91.140625 -35.832031 89.289062 -28.164062 85.59375 -21.1875 C 81.894531 -14.207031 76.660156 -8.648438 69.890625 -4.515625 C 63.117188 -0.378906 55.515625 1.6875 47.078125 1.6875 C 38.503906 1.6875 30.84375 -0.390625 24.09375 -4.546875 C 17.351562 -8.703125 12.175781 -14.289062 8.5625 -21.3125 C 4.945312 -28.332031 3.140625 -36.082031 3.140625 -44.5625 C 3.140625 -49.457031 3.847656 -54.234375 5.265625 -58.890625 C 6.679688 -63.546875 8.707031 -67.796875 11.34375 -71.640625 C 13.976562 -75.484375 17.082031 -78.859375 20.65625 -81.765625 C 24.226562 -84.671875 28.28125 -86.925781 32.8125 -88.53125 C 37.34375 -90.144531 42.078125 -90.953125 47.015625 -90.953125 Z M 47.015625 -90.953125 "/></g></g></g><g fill="#000000" fill-opacity="1"><g transform="translate(1016.006217, 424.115535)"><g><path d="M 18.484375 -58.734375 C 20.410156 -60.617188 22.132812 -62.164062 23.65625 -63.375 C 25.1875 -64.582031 27.242188 -65.75 29.828125 -66.875 C 32.421875 -68.007812 35.015625 -68.578125 37.609375 -68.578125 C 42.742188 -68.578125 47.171875 -67.21875 50.890625 -64.5 C 54.617188 -61.78125 57.421875 -58.3125 59.296875 -54.09375 C 61.179688 -49.832031 62.125 -44.003906 62.125 -36.609375 L 62.125 -4.953125 C 62.125 -3.234375 61.503906 -1.757812 60.265625 -0.53125 C 59.035156 0.695312 57.5625 1.3125 55.84375 1.3125 C 54.132812 1.3125 52.660156 0.695312 51.421875 -0.53125 C 50.191406 -1.757812 49.578125 -3.234375 49.578125 -4.953125 L 49.578125 -36.609375 C 49.578125 -42.242188 48.992188 -46.359375 47.828125 -48.953125 C 46.910156 -51.003906 45.59375 -52.695312 43.875 -54.03125 C 42.164062 -55.363281 40.117188 -56.03125 37.734375 -56.03125 C 31.628906 -56.03125 26.894531 -53.691406 23.53125 -49.015625 C 20.164062 -44.335938 18.503906 -37.945312 18.546875 -29.84375 L 18.609375 -4.828125 C 18.609375 -3.109375 17.992188 -1.632812 16.765625 -0.40625 C 15.535156 0.820312 14.0625 1.4375 12.34375 1.4375 C 10.59375 1.4375 9.109375 0.820312 7.890625 -0.40625 C 6.679688 -1.632812 6.078125 -3.128906 6.078125 -4.890625 L 5.953125 -62.5 C 5.953125 -64.289062 6.429688 -65.78125 7.390625 -66.96875 C 8.359375 -68.164062 9.675781 -68.765625 11.34375 -68.765625 C 14.226562 -68.765625 16.253906 -66.675781 17.421875 -62.5 Z M 18.484375 -58.734375 "/></g></g></g><g fill="#000000" fill-opacity="1"><g transform="translate(1084.075385, 424.115535)"><g><path d="M 36.484375 -68.453125 C 41.953125 -68.453125 47.035156 -67.082031 51.734375 -64.34375 C 56.441406 -61.601562 60.195312 -57.863281 63 -53.125 C 65.800781 -48.382812 67.203125 -43.234375 67.203125 -37.671875 C 67.203125 -36.460938 67.140625 -35.269531 67.015625 -34.09375 C 66.835938 -32.550781 66.132812 -31.242188 64.90625 -30.171875 C 63.675781 -29.109375 62.285156 -28.578125 60.734375 -28.578125 L 16.921875 -28.515625 C 18.046875 -23.796875 20.519531 -19.734375 24.34375 -16.328125 C 28.175781 -12.921875 32.515625 -11.21875 37.359375 -11.21875 C 40.742188 -11.21875 43.878906 -12.039062 46.765625 -13.6875 C 49.648438 -15.34375 51.945312 -17.425781 53.65625 -19.9375 C 54.15625 -20.726562 54.90625 -21.394531 55.90625 -21.9375 C 56.914062 -22.476562 57.898438 -22.75 58.859375 -22.75 C 60.566406 -22.75 62.035156 -22.125 63.265625 -20.875 C 64.503906 -19.625 65.125 -18.140625 65.125 -16.421875 C 65.125 -15.085938 64.75 -13.894531 64 -12.84375 C 61.195312 -8.75 57.5 -5.382812 52.90625 -2.75 C 48.3125 -0.125 43.191406 1.1875 37.546875 1.1875 C 31.273438 1.1875 25.535156 -0.429688 20.328125 -3.671875 C 15.128906 -6.910156 11.066406 -11.222656 8.140625 -16.609375 C 5.222656 -22.003906 3.765625 -27.8125 3.765625 -34.03125 C 3.765625 -40.050781 5.203125 -45.691406 8.078125 -50.953125 C 10.960938 -56.222656 14.929688 -60.457031 19.984375 -63.65625 C 25.046875 -66.851562 30.546875 -68.453125 36.484375 -68.453125 Z M 54.28125 -41.125 C 53.445312 -45.300781 51.367188 -48.804688 48.046875 -51.640625 C 44.722656 -54.484375 40.867188 -55.90625 36.484375 -55.90625 C 32.097656 -55.90625 28.128906 -54.460938 24.578125 -51.578125 C 21.023438 -48.703125 18.617188 -45.195312 17.359375 -41.0625 Z M 54.28125 -41.125 "/></g></g></g></svg>